<svg id="Layer_1" data-name="Layer 1" xmlns="http://www.w3.org/2000/svg" viewBox="0 0 316.39 439.47"><defs><style>.cls-1{fill:#1e110d;}.cls-2{fill:#efb17f;}.cls-3{fill:#df9068;}.cls-4{fill:#fff;}.cls-5{fill:#9b5d48;}.cls-6{fill:#c76766;}.cls-7{fill:#6e3640;}</style></defs><title>head</title><path class="cls-1" d="M376.89,80.43C347.54,62.82,270.76,34.59,134.74,35.57l32.75,55.62L93.12,83.36s36.29,189,51.95,208.58l21.16-154H351.28l31.27,154,26.53-159.07a30.37,30.37,0,0,0-1.29-15.22A71.4,71.4,0,0,0,376.89,80.43Z" transform="translate(-93.12 -35.54)"/><path class="cls-2" d="M258.76,138H166.23L140.77,249S117.85,231.2,113,245.75s1.07,57,26.62,71.57L159.09,432,258.76,475Z" transform="translate(-93.12 -35.54)"/><path class="cls-3" d="M258.76,138h92.53L376.74,249c-7.86,5.5,20.28-16,27.78-3.28,7.79,13.22-1.07,57-26.62,71.57L358.42,432,258.76,475Z" transform="translate(-93.12 -35.54)"/><polygon class="cls-1" points="64.45 172.2 72.41 196.42 142.85 197.4 142.85 179.46 64.45 172.2"/><polygon class="cls-1" points="266.78 172.2 258.82 196.42 188.37 197.4 188.37 179.46 266.78 172.2"/><polygon class="cls-4" points="71.26 213.18 80.75 245.07 130.96 245.07 137.93 213.18 71.26 213.18"/><polygon class="cls-4" points="258.52 213.18 249.03 245.07 198.82 245.07 191.85 213.18 258.52 213.18"/><path class="cls-1" d="M183,261.76a43.36,43.36,0,0,0,4,18.85h27a43.36,43.36,0,0,0,4-18.85,46.39,46.39,0,0,0-1.86-13h-31.3A46.39,46.39,0,0,0,183,261.76Z" transform="translate(-93.12 -35.54)"/><path class="cls-1" d="M335.81,261.76a43.36,43.36,0,0,1-4,18.85h-27a43.36,43.36,0,0,1-4-18.85,46.39,46.39,0,0,1,1.86-13H334A46.39,46.39,0,0,1,335.81,261.76Z" transform="translate(-93.12 -35.54)"/><polygon class="cls-3" points="156.68 217.88 165.63 217.92 165.63 318.28 132.82 306.13 156.68 217.88"/><polygon class="cls-5" points="174.53 217.92 165.63 217.92 165.63 318.28 198.44 306.37 174.53 217.92"/><polygon class="cls-6" points="165.63 365.77 127.87 357.34 105.01 341.42 165.63 351.96 165.63 365.77"/><polygon class="cls-7" points="165.63 365.77 203.39 357.34 226.25 341.42 165.63 351.96 165.63 365.77"/></svg>