<?xml version="1.0" standalone="no"?>
<!DOCTYPE svg PUBLIC "-//W3C//DTD SVG 20010904//EN"
 "http://www.w3.org/TR/2001/REC-SVG-20010904/DTD/svg10.dtd">
<svg version="1.0" xmlns="http://www.w3.org/2000/svg"
 width="2000.000000pt" height="2000.000000pt" viewBox="0 0 2000.000000 2000.000000"
 preserveAspectRatio="xMidYMid meet">
<metadata>
Created by potrace 1.11, written by Peter Selinger 2001-2013
</metadata>
<g transform="translate(0.000000,2000.000000) scale(0.100000,-0.100000)"
fill="#000000" stroke="none">
<path d="M4958 19529 c-9 -6 -9 -11 -1 -21 13 -16 233 -389 233 -395 0 -2 5
-9 10 -16 9 -10 54 -85 184 -308 12 -20 39 -67 60 -105 22 -38 44 -70 48 -72
4 -2 8 -8 8 -14 0 -6 20 -44 45 -85 25 -40 45 -78 45 -83 0 -6 5 -10 10 -10 6
0 10 -4 10 -10 0 -5 19 -40 42 -77 22 -38 49 -81 58 -98 9 -16 54 -93 100
-170 46 -77 92 -156 103 -175 11 -19 63 -109 117 -200 54 -91 106 -179 116
-197 11 -17 53 -89 94 -158 77 -130 120 -206 120 -211 0 -1 -10 -1 -23 1 -12
3 -52 7 -87 9 -36 3 -65 5 -65 6 0 1 -16 3 -35 5 -19 1 -64 5 -100 9 -36 4
-85 9 -110 11 -25 2 -63 7 -85 10 -22 3 -67 8 -100 11 -33 3 -76 8 -95 10 -19
2 -57 6 -85 8 -27 3 -72 8 -100 11 -27 3 -72 8 -100 11 -27 3 -68 7 -90 10
-22 2 -65 7 -95 10 -30 3 -68 7 -85 9 -16 2 -61 6 -100 10 -38 3 -90 8 -115
11 -25 3 -61 8 -80 10 -19 1 -57 5 -85 8 -27 3 -79 8 -115 12 -36 3 -75 7 -88
9 -13 2 -53 7 -90 10 -37 3 -80 8 -97 10 -16 2 -59 7 -95 10 -36 3 -83 8 -105
11 -22 3 -58 7 -80 9 -22 2 -60 6 -85 9 -25 3 -70 8 -100 11 -30 4 -75 8 -100
10 -25 2 -70 6 -100 10 -30 4 -73 8 -95 10 -22 2 -40 4 -40 5 0 1 -22 3 -50 5
-27 2 -75 7 -105 11 -64 7 -81 9 -173 18 l-67 7 5 -33 c3 -18 9 -42 12 -53 4
-11 7 -27 9 -35 3 -29 19 -113 30 -160 3 -14 7 -38 10 -55 2 -16 7 -41 10 -55
4 -14 9 -36 10 -50 5 -37 46 -242 52 -260 3 -8 7 -24 9 -35 2 -11 10 -54 18
-95 8 -41 17 -86 19 -100 3 -14 10 -50 16 -80 7 -30 13 -64 14 -75 2 -11 5
-27 8 -35 3 -8 13 -55 23 -105 9 -49 19 -99 21 -110 10 -38 15 -70 17 -97 1
-16 4 -28 7 -28 3 0 6 -8 7 -17 3 -33 14 -98 20 -113 3 -8 7 -31 10 -50 2 -19
8 -39 13 -45 6 -7 8 -14 5 -17 -3 -3 1 -34 9 -69 8 -35 17 -77 20 -94 3 -16
12 -61 21 -100 8 -38 18 -86 21 -105 3 -19 9 -48 14 -65 4 -16 11 -46 14 -65
3 -19 9 -46 12 -60 3 -14 7 -35 9 -47 2 -11 6 -29 9 -40 3 -10 8 -34 12 -53 3
-19 7 -39 8 -45 2 -5 6 -28 11 -50 4 -22 10 -49 12 -60 3 -11 5 -28 5 -37 -1
-10 2 -18 6 -18 4 0 8 -10 8 -22 1 -13 4 -34 8 -48 12 -52 19 -86 22 -105 1
-11 3 -20 4 -20 1 0 3 -9 5 -20 2 -11 6 -31 9 -45 6 -27 24 -111 31 -148 2
-13 6 -31 9 -40 3 -9 8 -33 11 -52 3 -19 8 -42 11 -51 2 -10 7 -30 9 -45 2
-16 9 -47 15 -69 6 -22 13 -58 16 -80 3 -21 7 -42 10 -46 2 -4 8 -29 14 -56 9
-49 58 -274 66 -305 7 -30 11 -49 39 -180 14 -71 30 -141 35 -158 5 -16 7 -30
4 -30 -3 0 0 -8 5 -17 5 -10 12 -35 15 -55 3 -21 11 -59 17 -85 6 -27 13 -58
14 -70 2 -11 6 -30 10 -42 3 -11 8 -31 11 -43 9 -48 12 -64 23 -105 6 -22 16
-63 21 -89 16 -74 19 -92 41 -184 11 -47 29 -125 40 -175 11 -49 24 -106 29
-125 19 -72 71 -296 75 -324 2 -15 8 -38 11 -50 4 -11 9 -28 10 -36 1 -8 10
-44 19 -80 9 -36 18 -74 20 -85 2 -11 9 -38 14 -60 6 -22 14 -56 17 -75 3 -19
10 -43 15 -52 5 -10 8 -18 5 -18 -3 0 0 -15 5 -32 10 -31 14 -47 23 -93 2 -11
12 -49 21 -85 9 -36 19 -73 21 -82 2 -10 6 -26 8 -35 2 -10 11 -45 19 -78 9
-33 18 -71 21 -85 12 -57 115 -451 121 -460 8 -13 3 -13 -42 4 -111 39 -168
50 -278 49 -112 -1 -187 -38 -265 -129 -13 -16 -41 -71 -41 -84 -1 -3 -4 -9
-9 -15 -9 -12 -46 -163 -54 -223 -28 -214 -25 -534 8 -747 3 -22 8 -56 10 -75
3 -19 8 -53 11 -75 6 -39 9 -56 20 -110 3 -14 7 -35 9 -48 2 -12 14 -62 26
-112 12 -49 23 -97 24 -105 10 -53 82 -273 127 -387 17 -43 32 -82 33 -88 10
-35 93 -208 154 -320 42 -77 185 -299 206 -321 6 -6 27 -30 46 -54 133 -165
270 -292 424 -392 39 -25 79 -52 88 -60 16 -12 25 -53 53 -228 7 -47 36 -215
41 -240 2 -14 7 -38 9 -55 3 -16 7 -41 10 -55 3 -14 8 -45 11 -70 3 -25 8 -53
10 -63 3 -10 7 -31 10 -47 5 -35 9 -60 24 -150 6 -36 13 -76 15 -90 2 -14 6
-36 10 -50 3 -14 8 -45 11 -70 3 -25 8 -53 10 -62 3 -10 7 -28 9 -40 2 -13 9
-57 15 -98 16 -106 17 -112 24 -140 3 -14 8 -41 11 -60 2 -19 7 -46 9 -60 3
-14 7 -42 10 -64 4 -21 8 -41 10 -45 2 -3 7 -31 11 -61 9 -71 13 -94 15 -100
1 -3 2 -8 1 -12 0 -4 4 -30 10 -56 5 -27 12 -62 14 -78 2 -16 4 -29 5 -29 1 0
3 -16 6 -35 5 -39 12 -75 14 -75 1 0 3 -13 5 -30 2 -16 9 -60 15 -97 7 -37 13
-78 15 -90 6 -34 15 -87 25 -143 5 -27 12 -66 14 -85 3 -19 8 -46 10 -60 24
-126 35 -204 30 -211 -3 -5 0 -9 7 -9 7 0 10 -2 7 -5 -3 -4 -2 -23 3 -43 4
-20 11 -59 15 -87 3 -27 8 -59 10 -70 3 -11 7 -36 10 -55 3 -19 7 -45 10 -57
2 -13 6 -33 8 -45 6 -30 16 -93 22 -143 3 -22 8 -47 11 -55 3 -8 7 -28 8 -45
2 -16 6 -43 9 -60 4 -16 9 -46 11 -65 3 -19 8 -46 11 -60 3 -13 8 -40 10 -60
2 -19 7 -46 10 -60 3 -14 7 -38 9 -55 2 -16 7 -41 10 -55 3 -14 8 -41 11 -60
2 -19 7 -46 10 -60 11 -58 16 -87 18 -115 2 -16 6 -41 9 -55 4 -14 9 -38 11
-55 11 -65 17 -102 27 -155 6 -30 12 -68 14 -85 2 -16 5 -39 8 -50 3 -11 8
-40 12 -65 10 -70 14 -93 20 -120 5 -23 10 -55 31 -185 3 -22 8 -47 9 -55 2
-8 4 -21 4 -28 1 -7 13 -17 29 -23 25 -10 136 -58 229 -100 24 -10 45 -19 48
-19 2 0 33 -13 67 -28 35 -16 131 -57 213 -93 83 -35 152 -66 155 -69 3 -3 12
-6 20 -8 8 -2 35 -13 60 -24 25 -11 54 -24 65 -29 11 -4 51 -22 89 -39 38 -16
75 -30 82 -30 8 0 14 -4 14 -8 0 -4 17 -14 38 -21 32 -11 57 -22 147 -62 182
-81 365 -156 369 -151 3 3 6 0 6 -6 0 -6 17 -16 38 -23 20 -6 58 -22 85 -36
26 -13 47 -21 47 -19 0 2 26 -8 58 -24 32 -15 98 -44 147 -65 50 -20 110 -46
135 -57 25 -12 108 -48 185 -80 77 -33 158 -69 180 -80 22 -12 41 -20 42 -20
2 1 24 -8 50 -19 81 -35 98 -42 103 -43 3 -1 21 -9 40 -18 19 -9 80 -35 135
-58 55 -23 120 -51 145 -62 25 -11 65 -29 90 -40 25 -11 59 -25 75 -33 110
-48 528 -228 535 -230 3 0 28 -11 55 -24 28 -12 93 -41 145 -63 52 -22 115
-49 140 -60 25 -12 45 -19 46 -17 0 2 7 -1 15 -7 8 -6 31 -17 52 -23 20 -7 37
-16 37 -20 0 -4 10 -7 22 -8 11 -1 25 -8 29 -15 5 -7 9 -10 9 -5 0 4 12 1 28
-7 15 -7 34 -10 42 -6 8 4 40 18 70 30 30 12 66 28 80 35 14 7 30 14 35 15 6
1 30 11 55 23 25 11 47 21 50 22 3 0 27 11 54 23 27 12 50 22 53 22 2 0 32 13
67 29 34 17 74 33 89 36 15 4 27 11 27 16 0 5 7 9 16 9 9 0 28 6 42 14 52 26
123 56 134 56 6 0 19 6 27 13 9 7 34 19 56 26 21 8 73 30 115 49 41 20 80 37
85 38 8 2 268 113 370 159 17 8 80 35 140 61 61 25 134 57 163 70 29 13 55 24
57 24 2 0 30 12 62 26 32 15 72 32 88 39 34 15 116 50 160 70 56 24 469 203
569 245 54 23 106 45 115 50 9 5 32 15 51 23 123 52 191 81 238 103 29 13 55
24 57 24 5 0 40 15 153 66 29 13 55 24 57 24 2 0 30 12 62 27 32 15 60 28 63
28 3 1 19 8 35 15 17 7 32 14 35 15 3 1 19 8 35 15 17 7 35 14 40 16 8 2 257
110 415 180 19 8 44 19 55 24 169 71 235 103 236 114 0 6 2 18 4 26 6 30 17
96 21 125 2 17 8 53 14 80 10 53 19 104 25 145 4 31 15 95 21 123 2 12 6 39
10 62 6 42 11 67 14 75 1 3 2 8 2 11 -1 4 8 58 19 120 11 63 22 128 24 144 3
17 7 41 10 55 5 25 10 50 21 113 3 17 7 49 9 71 3 21 7 46 9 55 3 9 7 30 10
46 3 17 8 46 11 65 3 19 10 60 15 90 5 30 12 71 15 90 2 19 9 55 14 80 5 25
12 65 16 90 3 25 10 68 15 95 17 87 22 119 24 140 2 19 14 89 22 130 3 11 7
36 10 55 6 36 11 67 18 110 8 44 32 190 41 245 2 11 6 36 9 55 20 110 27 148
31 170 3 14 7 43 10 65 5 41 12 80 15 80 1 0 3 16 5 35 2 19 6 44 8 55 5 21
18 97 23 130 4 28 15 93 20 119 2 11 7 37 10 56 3 19 7 42 9 50 2 8 7 38 10
65 4 28 8 57 10 65 2 8 7 30 10 48 5 34 8 51 30 175 8 44 14 82 13 85 -1 4 1
21 5 37 4 17 9 44 12 60 3 17 7 41 10 55 3 14 8 41 10 60 3 19 8 51 11 70 4
19 8 45 9 57 2 12 6 35 10 52 6 27 8 42 20 121 2 14 6 36 9 50 9 42 36 203 40
235 1 17 6 44 9 60 4 17 9 46 12 65 3 19 8 46 10 60 8 40 12 62 20 110 9 58
16 101 20 120 2 8 4 22 4 31 1 9 38 40 84 70 45 29 84 56 87 59 3 3 23 19 45
36 143 105 347 326 480 520 51 75 145 232 145 243 0 5 7 14 15 21 8 6 14 15
13 18 -1 4 13 36 32 72 42 80 140 307 140 324 0 6 4 16 9 21 16 18 120 354
135 438 2 15 7 30 9 34 3 5 8 26 11 48 4 22 9 49 12 59 4 11 7 34 9 51 1 17 5
36 8 42 3 5 9 41 12 79 4 38 8 71 11 75 8 13 17 201 17 339 -1 120 -8 255 -13
255 -2 0 -7 26 -15 75 -9 62 -52 186 -82 239 -93 161 -287 222 -529 166 -76
-17 -77 -18 -70 -7 3 5 8 31 12 58 3 27 7 56 9 64 1 8 6 35 10 60 4 25 9 52
10 60 1 8 6 35 10 60 8 51 12 74 20 110 9 49 17 95 21 129 2 19 8 57 13 85 6
28 13 71 16 96 3 25 8 52 10 60 3 8 7 33 10 55 5 42 9 66 25 150 5 28 11 64
14 80 4 28 21 130 30 185 3 14 7 41 10 60 3 19 7 44 10 55 2 11 7 40 10 65 3
25 8 56 11 70 3 14 7 39 9 55 2 17 9 57 15 90 6 33 13 74 15 90 3 17 12 71 21
120 9 50 18 108 21 130 2 22 8 60 13 85 11 48 23 122 27 155 1 11 5 36 8 55
11 53 34 190 41 235 3 23 8 52 10 65 7 33 14 72 20 113 3 17 7 43 10 57 2 14
7 43 10 65 3 23 8 52 10 65 7 32 16 85 20 119 2 14 4 26 5 26 1 0 3 9 4 20 4
32 17 115 22 138 2 12 6 36 9 52 4 30 9 58 22 125 3 19 7 46 9 60 1 14 9 66
18 115 9 50 18 101 20 115 3 14 14 86 26 160 11 74 24 146 27 160 3 14 7 36 9
50 4 28 24 155 30 185 3 11 7 35 10 54 3 18 8 43 10 55 2 11 7 39 9 61 3 22
10 63 15 90 5 28 12 69 15 92 2 23 9 61 14 85 6 24 13 66 16 94 3 28 8 61 12
75 9 32 9 253 0 304 -3 22 -9 57 -12 77 -12 83 -45 192 -102 333 -45 111 -193
405 -205 405 -4 0 -8 5 -8 11 0 26 -175 274 -285 405 -67 80 -308 321 -370
369 -27 21 -54 44 -60 50 -5 6 -26 22 -45 35 -19 13 -37 27 -40 30 -3 3 -27
21 -55 40 -27 19 -51 38 -53 42 -2 4 -9 8 -16 8 -7 0 -21 9 -31 20 -10 11 -22
20 -27 20 -5 0 -29 14 -53 30 -24 17 -47 30 -51 30 -4 0 -15 6 -23 14 -9 7
-47 30 -86 51 -38 21 -97 53 -130 72 -121 67 -434 218 -447 215 -3 -1 -12 5
-18 13 -7 8 -18 15 -25 15 -12 0 -126 48 -169 72 -10 5 -35 16 -55 23 -20 7
-85 34 -146 60 -60 25 -114 47 -120 49 -10 2 -148 54 -275 103 -36 14 -96 36
-135 49 -38 13 -104 35 -145 49 -41 15 -82 28 -90 31 -8 2 -49 15 -90 29 -41
14 -142 46 -225 71 -82 25 -157 48 -165 51 -8 3 -22 8 -30 10 -16 4 -15 4 -80
23 -25 7 -49 14 -55 15 -5 2 -57 16 -115 33 -96 27 -149 41 -175 47 -5 2 -35
10 -66 19 -31 9 -65 18 -75 21 -29 6 -133 32 -195 49 -30 8 -66 17 -80 19 -13
2 -31 6 -39 9 -8 4 -46 13 -85 22 -38 9 -101 23 -140 32 -38 9 -77 17 -85 19
-8 2 -35 8 -60 14 -25 5 -56 12 -70 15 -14 2 -53 11 -87 19 -35 9 -63 13 -63
11 0 -3 -8 -1 -17 5 -10 5 -37 11 -61 15 -24 3 -47 8 -52 11 -4 3 -25 7 -46
10 -44 6 -79 13 -79 15 0 1 -9 3 -20 4 -23 4 -128 24 -165 32 -14 3 -34 7 -45
9 -54 9 -100 17 -119 21 -50 10 -143 27 -161 30 -39 6 -80 13 -105 18 -14 3
-43 7 -64 11 -21 3 -48 7 -60 10 -12 2 -39 7 -60 10 -21 3 -48 7 -60 10 -19 4
-48 9 -131 20 -16 3 -39 6 -50 9 -19 4 -85 13 -152 21 -18 2 -36 6 -40 8 -4 3
-35 8 -68 11 -33 3 -71 8 -85 11 -14 2 -43 6 -65 9 -22 3 -56 8 -75 11 -19 2
-55 7 -80 10 -46 5 -115 14 -160 21 -14 2 -50 6 -81 9 -30 3 -66 8 -80 11 -13
3 -49 7 -79 9 -30 2 -71 7 -90 11 -19 3 -55 8 -80 10 -25 2 -65 6 -90 9 -72 9
-121 14 -180 20 -84 8 -151 14 -195 20 -22 2 -74 7 -115 10 -41 4 -91 8 -110
10 -19 3 -73 7 -120 10 -47 3 -103 8 -125 11 -41 6 -110 11 -245 19 -41 3
-102 7 -135 10 -33 3 -91 7 -130 9 -38 2 -108 7 -155 10 -83 7 -131 10 -375
21 -66 3 -151 8 -190 10 -62 3 -196 8 -550 21 -457 15 -1478 24 -1497 13z"/>
</g>
</svg>
